<svg xmlns="http://www.w3.org/2000/svg" viewBox="0 0 680 320" font-family="system-ui,-apple-system,sans-serif">

  <text x="340" y="28" text-anchor="middle" style="font-size:16px;font-weight:600;fill:#24292f">PUT throughput (MB/s, higher is better)</text>

  <line x1="120" y1="45" x2="120" y2="275" style="stroke:#d1d9e0;stroke-width:0.5"/>
  <line x1="210" y1="45" x2="210" y2="275" style="stroke:#d1d9e0;stroke-width:0.5"/>
  <line x1="300" y1="45" x2="300" y2="275" style="stroke:#d1d9e0;stroke-width:0.5"/>
  <line x1="390" y1="45" x2="390" y2="275" style="stroke:#d1d9e0;stroke-width:0.5"/>
  <line x1="480" y1="45" x2="480" y2="275" style="stroke:#d1d9e0;stroke-width:0.5"/>
  <line x1="570" y1="45" x2="570" y2="275" style="stroke:#d1d9e0;stroke-width:0.5"/>

  <text x="120" y="290" text-anchor="middle" style="font-size:11px;fill:#656d76">0</text>
  <text x="210" y="290" text-anchor="middle" style="font-size:11px;fill:#656d76">100</text>
  <text x="300" y="290" text-anchor="middle" style="font-size:11px;fill:#656d76">200</text>
  <text x="390" y="290" text-anchor="middle" style="font-size:11px;fill:#656d76">300</text>
  <text x="480" y="290" text-anchor="middle" style="font-size:11px;fill:#656d76">400</text>
  <text x="570" y="290" text-anchor="middle" style="font-size:11px;fill:#656d76">500</text>

  <!-- 10MB group -->
  <text x="60" y="72" text-anchor="middle" style="font-size:13px;font-weight:600;fill:#24292f">10MB</text>

  <text x="115" y="96" text-anchor="end" style="font-size:13px;fill:#24292f">AbixIO</text>
  <rect x="120" y="82" width="132" height="24" rx="3" fill="#2563eb"/>
  <text x="258" y="99" style="font-size:13px;font-weight:600;fill:#24292f">147 MB/s</text>

  <text x="115" y="126" text-anchor="end" style="font-size:13px;fill:#24292f">RustFS</text>
  <rect x="120" y="112" width="69" height="24" rx="3" fill="#d97706"/>
  <text x="195" y="129" style="font-size:13px;font-weight:600;fill:#24292f">77 MB/s</text>

  <text x="115" y="156" text-anchor="end" style="font-size:13px;fill:#24292f">MinIO</text>
  <rect x="120" y="142" width="79" height="24" rx="3" fill="#059669"/>
  <text x="205" y="159" style="font-size:13px;font-weight:600;fill:#24292f">88 MB/s</text>

  <!-- 1GB group -->
  <text x="60" y="200" text-anchor="middle" style="font-size:13px;font-weight:600;fill:#24292f">1GB</text>

  <text x="115" y="224" text-anchor="end" style="font-size:13px;fill:#24292f">AbixIO</text>
  <rect x="120" y="210" width="318" height="24" rx="3" fill="#2563eb"/>
  <text x="444" y="227" style="font-size:13px;font-weight:600;fill:#24292f">353 MB/s</text>

  <text x="115" y="254" text-anchor="end" style="font-size:13px;fill:#24292f">RustFS</text>
  <rect x="120" y="240" width="418" height="24" rx="3" fill="#d97706"/>
  <text x="544" y="257" style="font-size:13px;font-weight:600;fill:#24292f">464 MB/s</text>

  <text x="115" y="284" text-anchor="end" style="font-size:13px;fill:#24292f">MinIO</text>
  <rect x="120" y="270" width="483" height="24" rx="3" fill="#059669"/>
  <text x="609" y="287" style="font-size:13px;font-weight:600;fill:#24292f">537 MB/s</text>

  <!-- legend -->
  <rect x="205" y="305" width="12" height="12" rx="2" fill="#2563eb"/>
  <text x="221" y="316" style="font-size:12px;fill:#24292f">AbixIO</text>
  <rect x="285" y="305" width="12" height="12" rx="2" fill="#d97706"/>
  <text x="301" y="316" style="font-size:12px;fill:#24292f">RustFS</text>
  <rect x="365" y="305" width="12" height="12" rx="2" fill="#059669"/>
  <text x="381" y="316" style="font-size:12px;fill:#24292f">MinIO</text>
</svg>
