<svg xmlns="http://www.w3.org/2000/svg" viewBox="0 0 620 260" font-family="system-ui,-apple-system,sans-serif" font-size="13">
  <style>
    .title { font-size: 15px; font-weight: 600; fill: #24292f; }
    .label { fill: #24292f; font-size: 12px; }
    .value { fill: #fff; font-size: 12px; font-weight: 600; }
    .value-dark { fill: #24292f; font-size: 12px; font-weight: 600; }
    .axis { fill: #656d76; font-size: 11px; }
    .grid { stroke: #d1d9e0; stroke-width: 0.5; }
    .legend { font-size: 12px; fill: #24292f; }
  </style>

  <text x="310" y="22" text-anchor="middle" class="title">PUT throughput (MB/s, higher is better)</text>

  <!-- grid lines -->
  <line x1="120" y1="35" x2="120" y2="230" class="grid"/>
  <line x1="210" y1="35" x2="210" y2="230" class="grid"/>
  <line x1="300" y1="35" x2="300" y2="230" class="grid"/>
  <line x1="390" y1="35" x2="390" y2="230" class="grid"/>
  <line x1="480" y1="35" x2="480" y2="230" class="grid"/>
  <line x1="570" y1="35" x2="570" y2="230" class="grid"/>

  <!-- axis labels -->
  <text x="120" y="245" text-anchor="middle" class="axis">0</text>
  <text x="210" y="245" text-anchor="middle" class="axis">100</text>
  <text x="300" y="245" text-anchor="middle" class="axis">200</text>
  <text x="390" y="245" text-anchor="middle" class="axis">300</text>
  <text x="480" y="245" text-anchor="middle" class="axis">400</text>
  <text x="570" y="245" text-anchor="middle" class="axis">500</text>

  <!-- 10MB group -->
  <text x="60" y="58" text-anchor="middle" class="label" font-weight="600">10MB</text>

  <text x="115" y="80" text-anchor="end" class="label">AbixIO</text>
  <rect x="120" y="68" width="132" height="20" rx="2" fill="#2563eb"/>
  <text x="257" y="82" class="value-dark">147 MB/s</text>

  <text x="115" y="106" text-anchor="end" class="label">RustFS</text>
  <rect x="120" y="94" width="69" height="20" rx="2" fill="#d97706"/>
  <text x="194" y="108" class="value-dark">77</text>

  <text x="115" y="132" text-anchor="end" class="label">MinIO</text>
  <rect x="120" y="120" width="79" height="20" rx="2" fill="#059669"/>
  <text x="204" y="134" class="value-dark">88</text>

  <!-- 1GB group -->
  <text x="60" y="168" text-anchor="middle" class="label" font-weight="600">1GB</text>

  <text x="115" y="190" text-anchor="end" class="label">AbixIO</text>
  <rect x="120" y="178" width="318" height="20" rx="2" fill="#2563eb"/>
  <text x="443" y="192" class="value-dark">353</text>

  <text x="115" y="216" text-anchor="end" class="label">RustFS</text>
  <rect x="120" y="204" width="418" height="20" rx="2" fill="#d97706"/>
  <text x="543" y="218" class="value-dark">464</text>

  <text x="115" y="242" text-anchor="end" class="label">MinIO</text>
  <rect x="120" y="230" width="483" height="20" rx="2" fill="#059669"/>
  <text x="608" y="244" class="value-dark">537</text>

  <!-- legend -->
  <rect x="175" y="255" width="10" height="10" rx="1" fill="#2563eb"/>
  <text x="189" y="265" class="legend">AbixIO</text>
  <rect x="255" y="255" width="10" height="10" rx="1" fill="#d97706"/>
  <text x="269" y="265" class="legend">RustFS</text>
  <rect x="335" y="255" width="10" height="10" rx="1" fill="#059669"/>
  <text x="349" y="265" class="legend">MinIO</text>
</svg>
