<svg xmlns="http://www.w3.org/2000/svg" viewBox="0 0 620 270" font-family="system-ui,-apple-system,sans-serif">

  <text x="310" y="22" text-anchor="middle" style="font-size:15px;font-weight:600;fill:#24292f">GET throughput (MB/s, higher is better)</text>

  <!-- grid lines (scale 0-900, bar area 120-570 = 450px) -->
  <line x1="120" y1="35" x2="120" y2="250" style="stroke:#d1d9e0;stroke-width:0.5"/>
  <line x1="195" y1="35" x2="195" y2="250" style="stroke:#d1d9e0;stroke-width:0.5"/>
  <line x1="270" y1="35" x2="270" y2="250" style="stroke:#d1d9e0;stroke-width:0.5"/>
  <line x1="345" y1="35" x2="345" y2="250" style="stroke:#d1d9e0;stroke-width:0.5"/>
  <line x1="420" y1="35" x2="420" y2="250" style="stroke:#d1d9e0;stroke-width:0.5"/>
  <line x1="495" y1="35" x2="495" y2="250" style="stroke:#d1d9e0;stroke-width:0.5"/>
  <line x1="570" y1="35" x2="570" y2="250" style="stroke:#d1d9e0;stroke-width:0.5"/>

  <text x="120" y="263" text-anchor="middle" style="font-size:11px;fill:#656d76">0</text>
  <text x="195" y="263" text-anchor="middle" style="font-size:11px;fill:#656d76">150</text>
  <text x="270" y="263" text-anchor="middle" style="font-size:11px;fill:#656d76">300</text>
  <text x="345" y="263" text-anchor="middle" style="font-size:11px;fill:#656d76">450</text>
  <text x="420" y="263" text-anchor="middle" style="font-size:11px;fill:#656d76">600</text>
  <text x="495" y="263" text-anchor="middle" style="font-size:11px;fill:#656d76">750</text>
  <text x="570" y="263" text-anchor="middle" style="font-size:11px;fill:#656d76">900</text>

  <!-- 10MB group (0.5px per MB/s) -->
  <text x="60" y="58" text-anchor="middle" style="font-size:12px;font-weight:600;fill:#24292f">10MB</text>

  <text x="115" y="80" text-anchor="end" style="font-size:12px;fill:#24292f">AbixIO</text>
  <rect x="120" y="68" width="72" height="20" rx="2" fill="#2563eb"/>
  <text x="197" y="82" style="font-size:12px;font-weight:600;fill:#24292f">143 MB/s</text>

  <text x="115" y="106" text-anchor="end" style="font-size:12px;fill:#24292f">RustFS</text>
  <rect x="120" y="94" width="50" height="20" rx="2" fill="#d97706"/>
  <text x="175" y="108" style="font-size:12px;font-weight:600;fill:#24292f">99</text>

  <text x="115" y="132" text-anchor="end" style="font-size:12px;fill:#24292f">MinIO</text>
  <rect x="120" y="120" width="62" height="20" rx="2" fill="#059669"/>
  <text x="187" y="134" style="font-size:12px;font-weight:600;fill:#24292f">124</text>

  <!-- 1GB group -->
  <text x="60" y="172" text-anchor="middle" style="font-size:12px;font-weight:600;fill:#24292f">1GB</text>

  <text x="115" y="194" text-anchor="end" style="font-size:12px;fill:#24292f">AbixIO</text>
  <rect x="120" y="182" width="186" height="20" rx="2" fill="#2563eb"/>
  <text x="312" y="196" style="font-size:12px;font-weight:600;fill:#24292f">372</text>

  <text x="115" y="220" text-anchor="end" style="font-size:12px;fill:#24292f">RustFS</text>
  <rect x="120" y="208" width="288" height="20" rx="2" fill="#d97706"/>
  <text x="414" y="222" style="font-size:12px;font-weight:600;fill:#24292f">576</text>

  <text x="115" y="246" text-anchor="end" style="font-size:12px;fill:#24292f">MinIO</text>
  <rect x="120" y="234" width="425" height="20" rx="2" fill="#059669"/>
  <text x="550" y="248" style="font-size:12px;font-weight:600;fill:#24292f">849</text>

  <!-- legend -->
  <rect x="175" y="268" width="10" height="10" rx="1" fill="#2563eb"/>
  <text x="189" y="278" style="font-size:12px;fill:#24292f">AbixIO</text>
  <rect x="255" y="268" width="10" height="10" rx="1" fill="#d97706"/>
  <text x="269" y="278" style="font-size:12px;fill:#24292f">RustFS</text>
  <rect x="335" y="268" width="10" height="10" rx="1" fill="#059669"/>
  <text x="349" y="278" style="font-size:12px;fill:#24292f">MinIO</text>
</svg>
