<svg xmlns="http://www.w3.org/2000/svg" viewBox="0 0 680 280" font-family="system-ui,-apple-system,sans-serif">

  <text x="340" y="22" text-anchor="middle" style="font-size:15px;font-weight:600;fill:#24292f">PUT throughput (MB/s, higher is better)</text>

  <line x1="120" y1="35" x2="120" y2="250" style="stroke:#d1d9e0;stroke-width:0.5"/>
  <line x1="210" y1="35" x2="210" y2="250" style="stroke:#d1d9e0;stroke-width:0.5"/>
  <line x1="300" y1="35" x2="300" y2="250" style="stroke:#d1d9e0;stroke-width:0.5"/>
  <line x1="390" y1="35" x2="390" y2="250" style="stroke:#d1d9e0;stroke-width:0.5"/>
  <line x1="480" y1="35" x2="480" y2="250" style="stroke:#d1d9e0;stroke-width:0.5"/>
  <line x1="570" y1="35" x2="570" y2="250" style="stroke:#d1d9e0;stroke-width:0.5"/>

  <text x="120" y="263" text-anchor="middle" style="font-size:11px;fill:#656d76">0</text>
  <text x="210" y="263" text-anchor="middle" style="font-size:11px;fill:#656d76">100</text>
  <text x="300" y="263" text-anchor="middle" style="font-size:11px;fill:#656d76">200</text>
  <text x="390" y="263" text-anchor="middle" style="font-size:11px;fill:#656d76">300</text>
  <text x="480" y="263" text-anchor="middle" style="font-size:11px;fill:#656d76">400</text>
  <text x="570" y="263" text-anchor="middle" style="font-size:11px;fill:#656d76">500</text>

  <!-- 10MB group -->
  <text x="60" y="58" text-anchor="middle" style="font-size:12px;font-weight:600;fill:#24292f">10MB</text>

  <text x="115" y="80" text-anchor="end" style="font-size:12px;fill:#24292f">AbixIO</text>
  <rect x="120" y="68" width="132" height="20" rx="2" fill="#2563eb"/>
  <text x="257" y="82" style="font-size:12px;font-weight:600;fill:#24292f">147 MB/s</text>

  <text x="115" y="106" text-anchor="end" style="font-size:12px;fill:#24292f">RustFS</text>
  <rect x="120" y="94" width="69" height="20" rx="2" fill="#d97706"/>
  <text x="194" y="108" style="font-size:12px;font-weight:600;fill:#24292f">77 MB/s</text>

  <text x="115" y="132" text-anchor="end" style="font-size:12px;fill:#24292f">MinIO</text>
  <rect x="120" y="120" width="79" height="20" rx="2" fill="#059669"/>
  <text x="204" y="134" style="font-size:12px;font-weight:600;fill:#24292f">88 MB/s</text>

  <!-- 1GB group -->
  <text x="60" y="172" text-anchor="middle" style="font-size:12px;font-weight:600;fill:#24292f">1GB</text>

  <text x="115" y="194" text-anchor="end" style="font-size:12px;fill:#24292f">AbixIO</text>
  <rect x="120" y="182" width="318" height="20" rx="2" fill="#2563eb"/>
  <text x="443" y="196" style="font-size:12px;font-weight:600;fill:#24292f">353 MB/s</text>

  <text x="115" y="220" text-anchor="end" style="font-size:12px;fill:#24292f">RustFS</text>
  <rect x="120" y="208" width="418" height="20" rx="2" fill="#d97706"/>
  <text x="543" y="222" style="font-size:12px;font-weight:600;fill:#24292f">464 MB/s</text>

  <text x="115" y="246" text-anchor="end" style="font-size:12px;fill:#24292f">MinIO</text>
  <rect x="120" y="234" width="483" height="20" rx="2" fill="#059669"/>
  <text x="608" y="248" style="font-size:12px;font-weight:600;fill:#24292f">537 MB/s</text>

  <!-- legend -->
  <rect x="205" y="270" width="10" height="10" rx="1" fill="#2563eb"/>
  <text x="219" y="280" style="font-size:12px;fill:#24292f">AbixIO</text>
  <rect x="285" y="270" width="10" height="10" rx="1" fill="#d97706"/>
  <text x="299" y="280" style="font-size:12px;fill:#24292f">RustFS</text>
  <rect x="365" y="270" width="10" height="10" rx="1" fill="#059669"/>
  <text x="379" y="280" style="font-size:12px;fill:#24292f">MinIO</text>
</svg>
